# Blender v3.3.0 OBJ File: ''
# www.blender.org
mtllib N64Tree.mtl
o mesh_245
v 0.046888 6.516168 -0.045078
v -0.383288 6.350738 -0.437150
v -0.505997 6.340857 0.128826
v -0.689859 5.888454 -0.724081
v -0.901114 5.871448 0.250299
v -0.807035 5.250807 -0.840779
v -1.050644 5.231196 0.282828
v -0.689989 4.613349 -0.742127
v -0.901244 4.596343 0.232253
v -0.383513 4.141281 -0.468422
v -0.506222 4.131402 0.097555
v 0.046629 3.962132 -0.081225
v -0.164561 4.584649 0.902208
v -0.196850 5.217621 1.060429
v -0.164432 5.859754 0.920255
v -0.074083 6.334199 0.510362
v 0.895678 5.223825 0.705142
v 0.783507 5.865066 0.615829
v 0.470453 6.337160 0.340696
v 0.783376 4.589961 0.597782
v -0.074307 4.124742 0.479091
v 0.470228 4.127702 0.309426
v 0.046629 3.962132 -0.081225
v 0.046629 3.962132 -0.081225
v 0.133656 5.251887 -0.463867
v 1.243772 4.512472 -0.233383
v 0.758567 5.255402 -0.665434
v -0.004400 4.505569 0.162143
v -0.351824 5.259609 -0.906367
v -0.983188 4.520905 -0.716590
v -0.212087 5.270857 -1.550882
v -0.703821 4.543397 -2.005128
v 0.413024 5.274375 -1.752406
v 0.550930 4.550274 -2.399227
v 0.898304 5.266653 -1.309949
v 1.523140 4.534960 -1.521922
v 1.243772 4.512472 -0.233383
v 0.898155 3.796354 -1.330758
v 0.412875 3.804076 -1.773215
v -0.212235 3.800557 -1.571691
v -0.351973 3.789310 -0.927176
v 0.133507 3.781587 -0.484676
v 0.758418 3.785102 -0.686243
v -0.805134 3.752826 1.162958
v -0.665397 3.764078 0.518443
v -0.179753 3.497346 0.959865
v 0.305256 3.748622 1.403890
v -0.317952 3.745241 1.597605
v 0.444994 3.759870 0.759375
v 0.792314 4.476126 1.848898
v 1.069978 4.498480 0.568212
v -0.040287 3.767592 0.316919
v 0.099471 4.513928 -0.316947
v -1.156981 4.506914 0.085006
v -1.434647 4.484559 1.365692
v -0.457615 4.469081 2.252524
v 0.792314 4.476126 1.848898
v -0.317803 5.215540 1.618414
v -0.804985 5.223125 1.183767
v -0.665248 5.234377 0.539252
v -0.040138 5.237892 0.337728
v 0.445143 5.230170 0.780184
v 0.305406 5.218922 1.424700
v -1.010331 4.620821 0.365207
v 0.099985 3.881406 0.595735
v -0.386924 4.624202 0.171537
v -1.150091 3.874365 0.999073
v -1.497315 4.628406 -0.069396
v -2.120598 3.889814 0.113912
v -1.357578 4.639654 -0.713911
v -1.842932 3.912168 -1.166774
v -0.732667 4.643172 -0.915479
v -0.594760 3.919071 -1.562300
v -0.247187 4.635450 -0.472978
v 0.377650 3.903757 -0.684951
v 0.099985 3.881406 0.595735
v -0.247337 3.165030 -0.493788
v -0.732815 3.172753 -0.936289
v -1.357727 3.169238 -0.734721
v -1.497464 3.157987 -0.090206
v -1.010481 3.150402 0.344397
v -0.387074 3.153783 0.150727
v -0.872150 2.929387 -0.293315
v 0.593162 6.347038 -0.225279
v 0.994761 5.882075 -0.358551
v 1.139287 5.243436 -0.418465
v 0.783376 4.589961 0.597782
v 0.994631 4.606971 -0.376599
v 0.470228 4.127702 0.309426
v 0.592937 4.137584 -0.256551
v 0.046629 3.962132 -0.081225
v 0.257949 4.618665 -1.046555
v 0.290367 5.256847 -1.186784
v 0.258079 5.893769 -1.028508
v 0.169527 6.353811 -0.613245
v 0.169302 4.144353 -0.644515
v 0.046629 3.962132 -0.081225
v 0.046629 3.962132 -0.081225
v 1.444394 4.617266 0.568897
v 1.584130 4.628513 -0.075618
v 0.959452 4.960932 0.124886
v 0.334202 4.621469 0.328007
v 0.681426 3.867429 1.396476
v 0.821186 4.613881 0.762610
v 1.931301 3.874470 0.993094
v 1.444244 3.146846 0.548086
v -0.289280 3.882881 0.511272
v 0.821036 3.143466 0.741800
v 0.334052 3.151050 0.307196
v -0.011615 3.905232 -0.769414
v 0.473789 3.162298 -0.337318
v 1.236757 3.912135 -1.164897
v 1.098701 3.165817 -0.538886
v 2.208967 3.896821 -0.287591
v 1.583981 3.158094 -0.096429
v 1.931301 3.874470 0.993094
v 0.473938 4.632718 -0.316508
v 1.098850 4.636236 -0.518076
v -0.804576 4.932099 -0.300927
v 0.273274 5.597535 -1.108151
v -0.179603 5.527223 1.009996
v 0.273124 3.533805 -1.128960
v 0.959301 2.922449 0.104074
v 0.672173 -0.037600 0.426000
v 0.286857 4.203420 0.138832
v -0.132678 -0.042162 0.687462
v -0.021512 4.201713 0.236649
v -0.763502 -0.032160 0.114487
v -0.268239 4.205522 0.018387
v -0.584600 -0.017760 -0.710668
v -0.198424 4.211142 -0.303624
v 0.225126 -0.013357 -0.962850
v 0.116522 4.212823 -0.400013
v 0.851075 -0.023195 -0.399155
v 0.356671 4.209040 -0.183180
v 0.672173 -0.037600 0.426000
v 0.286857 4.203420 0.138832
vt 0.501317 0.517915
vt 0.234710 0.274923
vt 0.158660 0.625694
vt 1.641845 0.274923
vt 1.355339 0.097094
vt 1.635722 0.625694
vt 1.344800 0.700978
vt 0.960150 0.024769
vt 0.947995 0.721139
vt 0.565077 0.085910
vt 0.554537 0.689794
vt 0.272507 0.255542
vt 0.266384 0.606313
vt 0.234571 0.255542
vt 0.501157 0.495512
vt 0.158520 0.606313
vt 0.370269 1.105007
vt -0.086300 0.689794
vt 0.370269 0.545876
vt 0.350257 0.938169
vt -0.086300 0.553124
vt -0.178892 0.946582
vt 0.370349 1.336139
vt -0.086219 1.343386
vt 0.370349 1.116192
vt 0.426344 0.862156
vt -0.086219 0.700978
vt 0.426344 1.630182
vt 0.158660 1.634309
vt 1.027365 0.942014
vt 0.957846 1.339431
vt 0.763827 1.632017
vt 0.763827 0.757003
vt 0.957765 0.549169
vt 0.426205 0.260843
vt 0.763687 0.262678
vt 0.426205 0.842775
vt 0.501157 0.495512
vt 0.763687 0.737623
vt 0.501157 0.495512
vt 0.555093 0.959405
vt 1.243101 0.501144
vt 0.942389 0.961584
vt 0.469531 0.496866
vt 0.555093 0.258365
vt 0.254210 -0.015880
vt 0.469531 0.646343
vt -0.137085 0.101737
vt 0.965605 -0.015880
vt 0.972576 -0.415326
vt 0.507784 0.101737
vt 0.521723 -0.696851
vt 0.340814 0.971162
vt 0.728234 0.973343
vt 0.036056 0.520310
vt 0.813703 0.524572
vt 0.728234 -0.540223
vt 1.028993 -0.266005
vt 0.813703 -0.941099
vt 1.416243 -0.397378
vt 0.969970 -0.266005
vt 0.962997 0.133441
vt 0.516494 -0.397378
vt 0.502557 0.401210
vt 0.058734 -0.278902
vt 1.028900 -0.278902
vt 0.728142 -0.553120
vt 0.728142 0.062106
vt 0.340722 0.059925
vt 0.061339 -0.428223
vt 0.054368 -0.028777
vt 0.254118 -0.028777
vt 0.555000 0.245468
vt 0.555000 0.048169
vt 0.942297 0.050347
vt 0.051760 0.120545
vt -0.026734 1.266610
vt 0.059869 0.867164
vt 0.360853 1.140741
vt 0.661444 1.415931
vt 0.275203 1.535988
vt 0.036123 1.016485
vt 0.480031 1.691730
vt 0.029151 1.415931
vt 0.493885 0.898009
vt 0.748048 1.016485
vt 0.447289 0.742267
vt 1.135390 0.898009
vt 0.533906 0.349421
vt 0.447289 0.039495
vt 0.059869 0.037317
vt 0.533906 0.502046
vt -0.244796 0.497699
vt 0.038730 0.867164
vt 0.031757 1.266610
vt 0.499113 0.598536
vt 0.485258 1.392257
vt -0.416883 1.392257
vt 0.188645 1.941883
vt 0.275203 0.025643
vt 0.661444 0.027738
vt 0.188645 0.474252
vt 0.963304 0.478618
vt 0.275295 0.936880
vt 0.275295 1.548885
vt -0.026642 1.279507
vt 0.942993 1.279507
vt 0.949967 0.880061
vt 0.059962 0.948553
vt 0.447382 0.950732
vt 0.447382 0.755164
vt 0.748141 1.029381
vt 0.947359 1.029381
vt 0.940388 1.428828
vt 0.661537 0.938975
vt -0.153908 0.568294
vt 0.534224 0.110033
vt 0.232457 0.570390
vt -0.240526 0.105669
vt -0.153908 0.772194
vt -0.455722 0.502843
vt -0.240526 1.165040
vt -0.842010 0.616451
vt 0.574409 0.502843
vt 0.581380 0.103397
vt 0.116657 0.616451
vt 0.130511 -0.177270
vt -0.369119 0.579966
vt 0.018178 0.582147
vt -0.669923 0.129098
vt 0.103648 0.133376
vt 0.018178 -0.021527
vt 0.319060 0.252718
vt 0.103648 -0.422403
vt 0.706311 0.121345
vt 0.578774 0.252718
vt 0.571803 0.652165
vt 0.125298 0.121345
vt 0.111446 0.915067
vt -0.332537 0.239821
vt 0.318967 0.239821
vt 0.018086 -0.034425
vt 0.018086 -0.329164
vt -0.369211 -0.331342
vt -0.329929 0.090500
vt -0.336902 0.489946
vt -0.455815 0.489946
vt -0.154001 0.759297
vt -0.154001 -0.343016
vt 0.232364 -0.340921
vt -0.339507 0.639267
vt -0.369211 0.090500
vt -0.068268 0.364067
vt 0.839877 0.406233
vt 1.633431 0.757003
vt 1.340844 0.927520
vt 1.639552 0.406233
vt 1.351386 0.323636
vt 0.943427 0.982873
vt 0.955581 0.286503
vt 0.550582 0.916335
vt 0.561124 0.312450
vt 0.264091 0.737623
vt 0.270216 0.386852
vt 0.763687 0.737623
vt 0.501157 0.495512
vt 0.839738 0.386852
vt 0.632125 -0.102763
vt 1.088693 0.312450
vt 0.632125 0.566958
vt 0.652216 0.962479
vt 1.088693 0.559711
vt 1.178345 0.954168
vt 0.632205 1.357220
vt 1.088773 1.349972
vt 0.632205 -0.091578
vt 0.577324 0.165786
vt 1.088773 0.323636
vt -0.027912 0.958736
vt 0.044709 1.353926
vt 0.234710 1.640432
vt 0.577324 1.642337
vt 0.044628 0.563663
vt 0.577185 0.272997
vt 0.234571 0.271093
vt 0.577185 0.146406
vt 0.501157 0.495512
vt 0.501157 0.495512
vt 1.367439 0.898433
vt 1.454042 0.498987
vt 1.066890 0.623252
vt 0.679383 0.749139
vt 0.894580 1.411336
vt 0.981198 1.018489
vt 0.981198 0.563993
vt 0.894580 0.101370
vt 1.669206 0.105734
vt 1.367346 -0.345220
vt 0.292973 0.862720
vt 0.981105 1.005592
vt 0.981105 -0.347315
vt 0.679291 0.736242
vt 0.112360 0.862720
vt 0.126212 0.068998
vt -0.341201 0.736242
vt -0.334230 0.336795
vt 0.465059 0.124799
vt 1.238753 0.129077
vt 0.765894 -0.335644
vt 1.153191 -0.333463
vt 1.238753 -0.176107
vt 1.841293 0.367614
vt 1.153191 0.211871
vt 1.453950 0.486089
vt 0.121000 0.367614
vt 0.107147 1.161335
vt -0.336836 0.486089
vt -0.343807 0.885536
vt 0.577081 0.349693
vt 0.765987 0.575668
vt 1.153284 0.577848
vt 1.153284 0.224768
vt 0.574475 0.498987
vt 0.567505 0.898433
vt 0.570109 0.749139
vt 0.765987 0.349693
vt 1.367439 0.566091
vt 0.232457 0.652165
vt -0.026388 0.359349
vt -0.369119 0.103397
vt 0.641623 -0.140938
vt 0.340814 -0.415326
vt 0.942389 0.133441
vt 0.360946 1.171810
vt 0.661537 1.428828
vt 0.059962 0.880061
vt 0.340722 -0.428223
vt 0.641530 -0.153835
vt 0.942297 0.120545
vt 1.066796 0.610354
vt 0.765894 0.336795
vt 1.367346 0.885536
vt 0.232364 0.639267
vt 0.284433 0.998928
vt 0.416616 0.002210
vt 0.560536 1.000000
vt 0.522401 0.002611
vt 0.776939 0.997649
vt 0.607041 0.001716
vt 0.413490 0.997649
vt 0.446457 0.001716
vt 0.696558 0.994265
vt 0.556923 0.000395
vt 0.715567 0.994265
vt 0.583090 0.000395
vt 0.437792 0.993230
vt 0.475049 0.000000
vt 0.223061 0.995543
vt 0.392666 0.000889
vt 0.589694 0.995543
vt 0.515604 0.000889
vt 0.306626 0.998928
vt 0.405139 0.002210
vn 0.0014 0.9998 0.0187
vn -0.4407 0.8105 -0.3858
vn -0.5655 0.8003 0.1992
vn -0.6659 0.4458 -0.5982
vn -0.8562 0.4315 0.2841
vn -0.7392 0.0099 -0.6734
vn -0.9533 -0.0049 0.3020
vn -0.6654 -0.4291 -0.6108
vn -0.8571 -0.4394 0.2690
vn -0.4402 -0.7973 -0.4130
vn -0.5655 -0.8073 0.1687
vn -0.3168 -0.9447 -0.0852
vn -0.1893 -0.4499 0.8728
vn -0.2111 -0.0153 0.9774
vn -0.1912 0.4236 0.8854
vn -0.1262 0.7977 0.5897
vn 0.7422 -0.0110 0.6701
vn 0.6673 0.4244 0.6121
vn 0.4368 0.7996 0.4122
vn 0.2814 -0.3966 0.8738
vn -0.1213 -0.8168 0.5640
vn 0.1936 -0.7700 0.6080
vn 0.0976 -0.9499 0.2968
vn -0.2166 -0.9491 0.2287
vn -0.1377 0.7534 0.6430
vn 0.3031 -0.0145 0.9529
vn 0.4777 0.7573 0.4453
vn -0.2111 -0.0154 0.9773
vn -0.6125 0.7618 0.2107
vn -0.9519 -0.0044 0.3063
vn -0.4773 0.7720 -0.4198
vn -0.7395 0.0102 -0.6731
vn 0.1390 0.7726 -0.6195
vn 0.2129 0.0153 -0.9770
vn 0.6155 0.7663 -0.1841
vn 0.9519 0.0051 -0.3062
vn 0.9773 -0.0047 0.2118
vn 0.5889 -0.7828 -0.2010
vn 0.1302 -0.7754 -0.6179
vn -0.4555 -0.7803 -0.4286
vn -0.5875 -0.7902 0.1746
vn -0.1300 -0.7944 0.5934
vn 0.4587 -0.7918 0.4032
vn -0.5874 -0.7889 0.1804
vn -0.4559 -0.7806 -0.4275
vn -0.0001 -0.9999 -0.0142
vn 0.4574 -0.7918 0.4048
vn -0.1331 -0.7952 0.5915
vn 0.5890 -0.7828 -0.2009
vn 0.9525 0.0048 -0.3045
vn 0.1308 -0.7771 -0.6157
vn -0.7407 0.0106 -0.6717
vn -0.9528 -0.0054 0.3036
vn 0.3053 -0.0126 0.9522
vn -0.1332 0.7597 0.6365
vn -0.6027 0.7702 0.2086
vn -0.4657 0.7840 -0.4105
vn 0.1337 0.7874 -0.6018
vn 0.6026 0.7774 -0.1801
vn 0.4698 0.7628 0.4443
vn -0.1331 0.7696 0.6245
vn 0.3051 -0.0126 0.9522
vn 0.4674 0.7618 0.4485
vn -0.2120 -0.0155 0.9771
vn -0.5922 0.7791 0.2057
vn -0.9528 -0.0055 0.3035
vn -0.4686 0.7843 -0.4065
vn -0.7395 0.0104 -0.6730
vn 0.1341 0.7764 -0.6158
vn 0.2120 0.0155 -0.9772
vn 0.6166 0.7654 -0.1841
vn 0.9519 0.0052 -0.3063
vn 0.5793 -0.7907 -0.1980
vn 0.1280 -0.7832 -0.6085
vn -0.4502 -0.7868 -0.4222
vn -0.5799 -0.7952 0.1771
vn -0.1315 -0.8029 0.5814
vn 0.4498 -0.7996 0.3979
vn -0.0001 -0.9999 -0.0147
vn 0.5642 0.8087 -0.1664
vn 0.8581 0.4396 -0.2655
vn 0.9516 0.0034 -0.3073
vn 0.9013 -0.3900 0.1886
vn 0.8572 -0.4321 -0.2802
vn 0.6323 -0.7648 0.1237
vn 0.5640 -0.8026 -0.1942
vn 0.3207 -0.9457 0.0530
vn 0.1920 -0.4225 -0.8858
vn 0.2129 0.0139 -0.9770
vn 0.1908 0.4475 -0.8737
vn 0.1271 0.8145 -0.5661
vn 0.1273 -0.7952 -0.5929
vn -0.0985 -0.9403 -0.3256
vn 0.2199 -0.9412 -0.2566
vn 0.4754 0.7554 0.4509
vn 0.6162 0.7657 -0.1843
vn -0.0001 0.9999 0.0139
vn -0.6143 0.7600 0.2124
vn -0.2120 -0.0155 0.9772
vn -0.1345 0.7535 0.6435
vn 0.3052 -0.0126 0.9522
vn -0.1314 -0.8029 0.5814
vn -0.5798 -0.7953 0.1771
vn 0.2120 0.0155 -0.9771
vn 0.9519 0.0052 -0.3062
vn 0.5793 -0.7907 -0.1979
vn -0.4797 0.7699 -0.4209
vn 0.1386 0.7718 -0.6206
vn 0.0457 0.9989 -0.0049
vn 0.0000 0.9999 0.0133
vn -0.0001 0.9994 0.0343
vn 0.0000 -0.9999 -0.0147
vn 0.3072 0.0920 0.9472
vn 0.3014 0.0928 0.9490
vn -0.2085 0.1084 0.9720
vn -0.2063 0.1074 0.9726
vn -0.9448 0.1179 0.3058
vn -0.9433 0.1173 0.3104
vn -0.7331 0.1312 -0.6673
vn -0.7301 0.1317 -0.6706
vn 0.2127 0.1342 -0.9679
vn 0.2154 0.1345 -0.9672
vn 0.9451 0.1257 -0.3015
vn 0.9446 0.1258 -0.3032
vn 0.9718 0.1027 0.2125
usemtl mat_1
s 1
f 1/1/1 2/2/2 3/3/3
f 2/4/2 4/5/4 3/6/3
f 3/6/3 4/5/4 5/7/5
f 4/5/4 6/8/6 5/7/5
f 5/7/5 6/8/6 7/9/7
f 6/8/6 8/10/8 7/9/7
f 7/9/7 8/10/8 9/11/9
f 8/10/8 10/12/10 9/11/9
f 9/11/9 10/12/10 11/13/11
f 10/14/10 12/15/12 11/16/11
f 11/16/11 13/17/13 9/18/9
f 13/19/13 14/20/14 9/21/9
f 9/21/9 14/20/14 7/22/7
f 14/20/14 15/23/15 7/22/7
f 7/22/7 15/23/15 5/24/5
f 15/25/15 16/26/16 5/27/5
f 5/24/5 16/28/16 3/29/3
f 16/26/16 1/1/1 3/3/3
f 13/19/13 17/30/17 14/20/14
f 17/30/17 18/31/18 14/20/14
f 14/20/14 18/31/18 15/23/15
f 18/31/18 19/32/19 15/23/15
f 15/23/15 19/32/19 16/28/16
f 19/33/19 1/1/1 16/26/16
f 17/30/17 13/19/13 20/34/20
f 13/19/13 21/35/21 20/34/20
f 20/34/20 21/35/21 22/36/22
f 21/37/21 23/38/23 22/39/22
f 13/17/13 11/16/11 21/37/21
f 11/16/11 24/40/24 21/37/21
f 25/41/25 26/42/26 27/43/27
f 26/42/26 25/41/25 28/44/28
f 25/45/25 29/46/29 28/47/28
f 28/47/28 29/46/29 30/48/30
f 29/49/29 31/50/31 30/51/30
f 30/51/30 31/50/31 32/52/32
f 31/53/31 33/54/33 32/55/32
f 32/55/32 33/54/33 34/56/34
f 33/57/33 35/58/35 34/59/34
f 34/59/34 35/58/35 36/60/36
f 35/61/35 27/62/27 36/63/36
f 36/63/36 27/62/27 37/64/37
f 37/64/37 38/65/38 36/63/36
f 38/66/38 39/67/39 36/60/36
f 36/60/36 39/67/39 34/59/34
f 39/68/39 40/69/40 34/56/34
f 34/56/34 40/69/40 32/55/32
f 40/70/40 41/71/41 32/52/32
f 32/52/32 41/71/41 30/51/30
f 41/72/41 42/73/42 30/48/30
f 30/48/30 42/73/42 28/47/28
f 42/74/42 43/75/43 28/44/28
f 28/44/28 43/75/43 26/42/26
f 37/64/37 43/76/43 38/65/38
f 44/77/44 45/78/45 46/79/46
f 47/80/47 48/81/48 46/79/46
f 49/82/49 50/83/37 47/84/47
f 50/83/37 49/82/49 51/85/50
f 49/86/49 52/87/51 51/88/50
f 51/88/50 52/87/51 53/89/34
f 52/90/51 45/91/45 53/92/34
f 53/92/34 45/91/45 54/93/52
f 45/94/45 44/95/44 54/96/52
f 54/96/52 44/95/44 55/97/53
f 44/77/44 48/81/48 55/98/53
f 55/98/53 48/81/48 56/99/28
f 48/100/48 47/101/47 56/102/28
f 56/102/28 47/101/47 57/103/54
f 57/103/54 58/104/55 56/102/28
f 58/105/55 59/106/56 56/99/28
f 56/99/28 59/106/56 55/98/53
f 59/107/56 60/108/57 55/97/53
f 55/97/53 60/108/57 54/96/52
f 60/109/57 61/110/58 54/93/52
f 54/93/52 61/110/58 53/92/34
f 61/111/58 62/112/59 53/89/34
f 53/89/34 62/112/59 51/88/50
f 62/113/59 63/114/60 51/85/50
f 51/85/50 63/114/60 50/83/37
f 57/103/54 63/115/60 58/104/55
f 64/116/61 65/117/62 66/118/63
f 65/117/62 64/116/61 67/119/64
f 64/120/61 68/121/65 67/122/64
f 67/122/64 68/121/65 69/123/66
f 68/124/65 70/125/67 69/126/66
f 69/126/66 70/125/67 71/127/68
f 70/128/67 72/129/69 71/130/68
f 71/130/68 72/129/69 73/131/70
f 72/132/69 74/133/71 73/134/70
f 73/134/70 74/133/71 75/135/72
f 74/136/71 66/137/63 75/138/72
f 75/138/72 66/137/63 76/139/37
f 76/139/37 77/140/73 75/138/72
f 77/141/73 78/142/74 75/135/72
f 75/135/72 78/142/74 73/134/70
f 78/143/74 79/144/75 73/131/70
f 73/131/70 79/144/75 71/130/68
f 79/145/75 80/146/76 71/127/68
f 71/127/68 80/146/76 69/126/66
f 80/147/76 81/148/77 69/123/66
f 69/123/66 81/148/77 67/122/64
f 81/149/77 82/150/78 67/119/64
f 67/119/64 82/150/78 65/117/62
f 76/139/37 82/151/78 77/140/73
f 79/152/75 78/142/74 83/153/79
f 1/1/1 19/33/19 84/154/80
f 19/155/19 18/156/18 84/157/80
f 84/157/80 18/156/18 85/158/81
f 18/156/18 17/159/17 85/158/81
f 85/158/81 17/159/17 86/160/82
f 17/159/17 87/161/83 86/160/82
f 86/160/82 87/161/83 88/162/84
f 87/161/83 89/163/85 88/162/84
f 88/162/84 89/163/85 90/164/86
f 89/165/85 91/166/87 90/167/86
f 90/167/86 92/168/88 88/169/84
f 92/170/88 93/171/89 88/172/84
f 88/172/84 93/171/89 86/173/82
f 93/171/89 94/174/90 86/173/82
f 86/173/82 94/174/90 85/175/81
f 94/176/90 95/177/91 85/178/81
f 85/178/81 95/177/91 84/154/80
f 95/177/91 1/1/1 84/154/80
f 92/170/88 6/179/6 93/171/89
f 6/179/6 4/180/4 93/171/89
f 93/171/89 4/180/4 94/174/90
f 4/180/4 2/181/2 94/174/90
f 94/174/90 2/181/2 95/182/91
f 2/2/2 1/1/1 95/177/91
f 6/179/6 92/170/88 8/183/8
f 92/170/88 96/184/92 8/183/8
f 8/183/8 96/184/92 10/185/10
f 96/186/92 97/187/93 10/14/10
f 92/168/88 90/167/86 96/186/92
f 90/167/86 98/188/94 96/186/92
f 99/189/95 100/190/96 101/191/97
f 102/192/98 103/193/99 104/194/100
f 104/195/100 103/196/99 105/197/101
f 103/196/99 106/198/78 105/197/101
f 102/192/98 107/199/66 103/193/99
f 107/199/66 108/200/102 103/193/99
f 103/196/99 108/201/102 106/198/78
f 80/147/76 79/152/75 83/153/79
f 108/200/102 107/199/66 109/202/103
f 107/203/66 110/204/68 109/205/103
f 109/205/103 110/204/68 111/206/75
f 110/207/68 112/208/104 111/209/75
f 111/209/75 112/208/104 113/210/74
f 112/211/104 114/212/105 113/213/74
f 113/213/74 114/212/105 115/214/106
f 114/215/105 116/216/37 115/217/106
f 115/217/106 116/216/37 106/218/78
f 107/203/66 117/219/107 110/204/68
f 117/220/107 118/221/108 110/207/68
f 110/207/68 118/221/108 112/208/104
f 118/222/108 100/190/96 112/211/104
f 112/211/104 100/190/96 114/212/105
f 100/223/96 99/224/95 114/215/105
f 114/215/105 99/224/95 116/216/37
f 107/203/66 102/225/98 117/219/107
f 117/226/107 102/192/98 101/191/97
f 105/197/101 99/227/95 104/195/100
f 100/190/96 118/222/108 101/191/97
f 64/120/61 66/228/63 119/229/109
f 74/133/71 72/132/69 119/229/109
f 68/121/65 64/120/61 119/229/109
f 70/230/67 68/121/65 119/229/109
f 66/228/63 74/133/71 119/229/109
f 72/132/69 70/230/67 119/229/109
f 118/222/108 117/226/107 101/191/97
f 102/192/98 104/194/100 101/191/97
f 104/194/100 99/189/95 101/191/97
f 35/58/35 33/57/33 120/231/110
f 31/232/31 29/46/29 120/231/110
f 33/57/33 31/232/31 120/231/110
f 25/45/25 27/233/27 120/231/110
f 27/233/27 35/58/35 120/231/110
f 29/46/29 25/45/25 120/231/110
f 62/112/59 61/111/58 121/234/111
f 63/235/60 62/112/59 121/234/111
f 60/236/57 59/106/56 121/234/111
f 61/111/58 60/236/57 121/234/111
f 58/105/55 63/235/60 121/234/111
f 59/106/56 58/105/55 121/234/111
f 40/237/40 39/67/39 122/238/112
f 45/78/45 52/87/51 46/79/46
f 38/66/38 43/239/43 122/238/112
f 42/73/42 41/72/41 122/238/112
f 41/72/41 40/237/40 122/238/112
f 43/239/43 42/73/42 122/238/112
f 52/87/51 49/86/49 46/79/46
f 48/81/48 44/77/44 46/79/46
f 49/86/49 47/80/47 46/79/46
f 39/67/39 38/66/38 122/238/112
f 108/200/102 109/202/103 123/240/79
f 111/241/75 113/213/74 123/240/79
f 115/214/106 106/242/78 123/240/79
f 109/202/103 111/241/75 123/240/79
f 106/242/78 108/200/102 123/240/79
f 77/141/73 82/243/78 83/153/79
f 81/148/77 80/147/76 83/153/79
f 82/243/78 81/148/77 83/153/79
f 78/142/74 77/141/73 83/153/79
f 113/213/74 115/214/106 123/240/79
usemtl Material.001
f 124/244/113 125/245/114 126/246/115
f 125/245/114 127/247/116 126/246/115
f 126/246/115 127/247/116 128/248/117
f 127/247/116 129/249/118 128/248/117
f 128/250/117 129/251/118 130/252/119
f 129/251/118 131/253/120 130/252/119
f 130/254/119 131/255/120 132/256/121
f 131/255/120 133/257/122 132/256/121
f 132/256/121 133/257/122 134/258/123
f 133/257/122 135/259/124 134/258/123
f 134/260/123 135/261/124 136/262/125
f 135/261/124 137/263/125 136/262/125
